<?xml version="1.0" encoding="utf-8"?>
<!-- Generator: Adobe Illustrator 25.3.1, SVG Export Plug-In . SVG Version: 6.00 Build 0)  -->
<svg version="1.1" id="Réteg_1" xmlns="http://www.w3.org/2000/svg" xmlns:xlink="http://www.w3.org/1999/xlink" x="0px" y="0px"
	 viewBox="0 0 150 150" style="enable-background:new 0 0 150 150;" xml:space="preserve">
<style type="text/css">
	.st0{fill:none;stroke:#FFFFFF;stroke-width:2.095;stroke-miterlimit:10;}
	.st1{fill:none;stroke:#FFFFFF;stroke-width:1.2641;stroke-miterlimit:10;}
	.st2{fill:#FFFFFF;stroke:#FFFFFF;stroke-width:1.3475;stroke-miterlimit:10;}
	.st3{fill:#FFFFFF;stroke:#FFFFFF;stroke-width:0.6867;stroke-miterlimit:10;}
	.st4{fill:none;stroke:#FFFFFF;stroke-width:1.2499;stroke-miterlimit:10;}
	.st5{fill:#FFFF00;stroke:#FFFFFF;stroke-width:0.632;stroke-miterlimit:10;}
	.st6{fill:#FFFFFF;stroke:#FFFFFF;stroke-width:2.0342;stroke-miterlimit:10;}
	.st7{fill:#FFFFFF;stroke:#FFFFFF;stroke-width:0.632;stroke-miterlimit:10;}
	.st8{fill:#FFFFFF;stroke:#FFFFFF;stroke-width:0.4333;stroke-miterlimit:10;}
	.st9{fill:none;stroke:#FFFFFF;stroke-width:1.2641;stroke-linecap:round;stroke-miterlimit:10;}
	.st10{fill:#FFFFFF;stroke:#FFFFFF;stroke-width:0.6072;stroke-miterlimit:10;}
	.st11{fill:none;stroke:#FFFFFF;stroke-width:2.256;stroke-miterlimit:10;}
	.st12{font-family:'Oswald-Light';}
	.st13{font-size:12.6409px;}
	.st14{fill:none;stroke:#FFFFFF;stroke-width:1.1872;stroke-linecap:round;stroke-miterlimit:10;}
	.st15{fill:none;stroke:#FFFFFF;stroke-width:0.632;stroke-miterlimit:10;}
</style>
<path class="st0" d="M73.6,85.6"/>
<path class="st1" d="M73.3,79.1"/>
<path class="st2" d="M94.2,89.1H82c-1,0-1.9-0.8-1.9-1.9l0,0c0-1,0.8-1.9,1.9-1.9h12.2c0.9,0,1.7,0.8,1.7,1.7v0.4
	C95.9,88.3,95.1,89.1,94.2,89.1z"/>
<path class="st3" d="M80.7,87.8h-4.1c-0.3,0-0.6-0.3-0.6-0.6v-0.4c0-0.3,0.3-0.6,0.6-0.6h4.1c0.3,0,0.6,0.3,0.6,0.6v0.4
	C81.4,87.5,81.1,87.8,80.7,87.8z"/>
<path class="st4" d="M86,60c0.5,0,1,0.4,1,0.9C88,71.1,80.1,79,72.9,79c-7.2,0-15.1-7.9-14.1-18.1c0.1-0.5,0.5-0.9,1-0.9
	c1.5,0,2.9,0,4.4,0C71.5,60,78.7,60,86,60z"/>
<path class="st5" d="M81.9,63.8H63.8c-1.4,0-2.6-1.2-2.6-2.6v-2.4c0-1.4,1.2-2.6,2.6-2.6h18.2c1.4,0,2.6,1.2,2.6,2.6v2.4
	C84.5,62.6,83.3,63.8,81.9,63.8z"/>
<rect x="62.8" y="55.6" class="st5" width="19.6" height="1.3"/>
<path class="st6" d="M82.1,61.6c0,5.2-4.2,9.5-9.5,9.5c-5.2,0-9.5-4.2-9.5-9.5"/>
<rect x="61.1" y="58.7" class="st7" width="23.4" height="2.4"/>
<rect x="65.9" y="49.9" class="st8" width="14.9" height="0.9"/>
<rect x="64.3" y="52.4" class="st7" width="17.7" height="1.3"/>
<path class="st9" d="M45.9,59.1c-7.2,0.2-13.2,6-13.7,13.1c-0.6,8.3,6,15.3,14.2,15.3c7.6,0.1,15.2,0.2,22.8,0.3V79"/>
<path class="st1" d="M73.6,39.5"/>
<polygon class="st7" points="72.4,56.2 71.9,48 73.8,48 73.3,56.2 "/>
<polygon class="st10" points="76.8,56.2 76.3,48.6 78.2,48.6 77.7,56.2 "/>
<polygon class="st10" points="67.9,56.2 67.5,48.6 69.4,48.6 68.9,56.2 "/>
<path class="st11" d="M63.5,56.9c0-5.2,4.3-9.5,9.6-9.5s9.6,4.2,9.6,9.5"/>
<text transform="matrix(1 0 0 1 24.7314 104.0078)" class="st7 st12 st13">E&amp;B PODCAST STUDIO</text>
<path class="st14" d="M51.3,64.8c-2-12,6.1-23.5,18.2-25.5c12-2,23.5,6.1,25.5,18.2"/>
<path class="st9" d="M72.9,79"/>
<path class="st9" d="M73.3,79.1"/>
<path class="st1" d="M92.1,49.9h4c10.3,0,18.6,8.3,18.6,18.6c0,10.3-8.3,18.6-18.6,18.6"/>
<path class="st7" d="M81.9,63.8H63.8c-1.4,0-2.6-1.2-2.6-2.6v-2.4c0-1.4,1.2-2.6,2.6-2.6h18.2c1.4,0,2.6,1.2,2.6,2.6v2.4
	C84.5,62.6,83.3,63.8,81.9,63.8z"/>
<rect x="61.1" y="58.7" class="st15" width="23.4" height="2.4"/>
</svg>
